# xmcd
#
# Track frame offsets: 
#        150
#        39992
#        81092
#        104345
#        121315
#        149282
#        170452
#
# Disc length: 2620 seconds
#
# Revision: 3
# Processed by: cddbd v1.4PL0 Copyright (c) Steve Scherf et al.
# Submitted via: ExactAudioCopy v0.90b2
#
DISCID=540a3a07
DTITLE=George Benson - Beyond the Blue Horizon
DYEAR=1900
DGENRE=
TTITLE0=So What
TTITLE1=The Gentle Rain
TTITLE2=All Clear
TTITLE3=Ode To A Kudu
TTITLE4=Somewhere In The East
TTITLE5=Ode To A Kudu
TTITLE6=All Clear
EXTD=
EXTT0=
EXTT1=
EXTT2=
EXTT3=
EXTT4=
EXTT5=
EXTT6=
PLAYORDER=
